<?xml version="1.0" encoding="UTF-8" standalone="no"?>
<!-- Created with Inkscape (http://www.inkscape.org/) -->

<svg
   xmlns:dc="http://purl.org/dc/elements/1.1/"
   xmlns:cc="http://creativecommons.org/ns#"
   xmlns:rdf="http://www.w3.org/1999/02/22-rdf-syntax-ns#"
   xmlns:svg="http://www.w3.org/2000/svg"
   xmlns="http://www.w3.org/2000/svg"
   xmlns:sodipodi="http://sodipodi.sourceforge.net/DTD/sodipodi-0.dtd"
   xmlns:inkscape="http://www.inkscape.org/namespaces/inkscape"
   inkscape:export-ydpi="179.62755"
   inkscape:export-xdpi="179.62755"
   inkscape:export-filename="/home/tom/path3336.png"
   sodipodi:docname="logo.svg"
   inkscape:version="0.91 r13725"
   version="1.1"
   id="svg2"
   viewBox="0 0 100.00001 36.000003"
   height="36"
   width="100">
  <defs
     id="defs4">
    <filter
       style="color-interpolation-filters:sRGB"
       inkscape:label="Drop Shadow"
       id="filter4634">
      <feFlood
         flood-opacity="0.498039"
         flood-color="rgb(0,0,0)"
         result="flood"
         id="feFlood4636" />
      <feComposite
         in="flood"
         in2="SourceGraphic"
         operator="in"
         result="composite1"
         id="feComposite4638" />
      <feGaussianBlur
         in="composite1"
         stdDeviation="1"
         result="blur"
         id="feGaussianBlur4640" />
      <feOffset
         dx="1"
         dy="1"
         result="offset"
         id="feOffset4642" />
      <feComposite
         in="SourceGraphic"
         in2="offset"
         operator="over"
         result="composite2"
         id="feComposite4644" />
    </filter>
    <filter
       style="color-interpolation-filters:sRGB"
       inkscape:label="Drop Shadow"
       id="filter5532">
      <feFlood
         flood-opacity="0.498039"
         flood-color="rgb(0,0,0)"
         result="flood"
         id="feFlood5534" />
      <feComposite
         in="flood"
         in2="SourceGraphic"
         operator="in"
         result="composite1"
         id="feComposite5536" />
      <feGaussianBlur
         in="composite1"
         stdDeviation="1"
         result="blur"
         id="feGaussianBlur5538" />
      <feOffset
         dx="1"
         dy="1"
         result="offset"
         id="feOffset5540" />
      <feComposite
         in="SourceGraphic"
         in2="offset"
         operator="over"
         result="composite2"
         id="feComposite5542" />
    </filter>
    <filter
       style="color-interpolation-filters:sRGB"
       inkscape:label="Drop Shadow"
       id="filter4158">
      <feFlood
         flood-opacity="0.498039"
         flood-color="rgb(0,0,0)"
         result="flood"
         id="feFlood4160" />
      <feComposite
         in="flood"
         in2="SourceGraphic"
         operator="in"
         result="composite1"
         id="feComposite4162" />
      <feGaussianBlur
         in="composite1"
         stdDeviation="1"
         result="blur"
         id="feGaussianBlur4164" />
      <feOffset
         dx="1"
         dy="1"
         result="offset"
         id="feOffset4166" />
      <feComposite
         in="SourceGraphic"
         in2="offset"
         operator="over"
         result="composite2"
         id="feComposite4168" />
    </filter>
    <filter
       style="color-interpolation-filters:sRGB;"
       inkscape:label="Drop Shadow"
       id="filter4841">
      <feFlood
         flood-opacity="0.498039"
         flood-color="rgb(0,0,0)"
         result="flood"
         id="feFlood4843" />
      <feComposite
         in="flood"
         in2="SourceGraphic"
         operator="in"
         result="composite1"
         id="feComposite4845" />
      <feGaussianBlur
         in="composite1"
         stdDeviation="1"
         result="blur"
         id="feGaussianBlur4847" />
      <feOffset
         dx="1"
         dy="1"
         result="offset"
         id="feOffset4849" />
      <feComposite
         in="SourceGraphic"
         in2="offset"
         operator="over"
         result="composite2"
         id="feComposite4851" />
    </filter>
  </defs>
  <sodipodi:namedview
     units="px"
     fit-margin-bottom="0"
     fit-margin-right="0"
     fit-margin-left="0"
     fit-margin-top="0"
     inkscape:window-maximized="1"
     inkscape:window-y="24"
     inkscape:window-x="45"
     inkscape:window-height="744"
     inkscape:window-width="1321"
     showgrid="false"
     inkscape:current-layer="layer1"
     inkscape:document-units="px"
     inkscape:cy="-21.767136"
     inkscape:cx="-36.872098"
     inkscape:zoom="2.8284271"
     inkscape:pageshadow="2"
     inkscape:pageopacity="0.0"
     borderopacity="1.0"
     bordercolor="#666666"
     pagecolor="#ffffff"
     id="base" />
  <metadata
     id="metadata7">
    <rdf:RDF>
      <cc:Work
         rdf:about="">
        <dc:format>image/svg+xml</dc:format>
        <dc:type
           rdf:resource="http://purl.org/dc/dcmitype/StillImage" />
        <dc:title></dc:title>
      </cc:Work>
    </rdf:RDF>
  </metadata>
  <g
     inkscape:label="Layer 1"
     inkscape:groupmode="layer"
     id="layer1"
     transform="translate(-151.69089,-896.64116)">
    <text
       xml:space="preserve"
       style="font-style:normal;font-weight:normal;font-size:40px;line-height:125%;font-family:sans-serif;letter-spacing:0px;word-spacing:0px;fill:#cccccc;fill-opacity:1;stroke:none;stroke-width:1px;stroke-linecap:butt;stroke-linejoin:miter;stroke-opacity:1"
       x="200.94089"
       y="914.89117"
       id="text5256"
       sodipodi:linespacing="125%"><tspan
         sodipodi:role="line"
         id="tspan5258"
         x="200.94089"
         y="914.89117" /></text>
    <text
       xml:space="preserve"
       style="font-style:normal;font-weight:normal;font-size:16.25000191px;line-height:125%;font-family:sans-serif;letter-spacing:0px;word-spacing:0px;fill:#cccccc;fill-opacity:1;stroke:none;stroke-width:1px;stroke-linecap:butt;stroke-linejoin:miter;stroke-opacity:1"
       x="201.19089"
       y="928.14117"
       id="text5260"
       sodipodi:linespacing="125%"><tspan
         sodipodi:role="line"
         id="tspan5262"
         x="201.19089"
         y="928.14117" /></text>
    <path
       style="font-style:normal;font-weight:normal;font-size:16.25px;line-height:125%;font-family:sans-serif;letter-spacing:0px;word-spacing:0px;fill:#ffffff;fill-opacity:1;stroke:none;stroke-width:1px;stroke-linecap:butt;stroke-linejoin:miter;stroke-opacity:1;filter:url(#filter5532)"
       d="M 10.800781 3.1347656 A 3.4914542 3.4914542 0 0 0 7.3085938 6.6269531 A 3.4914542 3.4914542 0 0 0 10.800781 10.117188 A 3.4914542 3.4914542 0 0 0 14.291016 6.6269531 A 3.4914542 3.4914542 0 0 0 10.800781 3.1347656 z M 11.005859 10.53125 A 5.8305468 7.7316891 0 0 0 8.7246094 11.152344 L 3.7753906 11.152344 L 3.7753906 32.632812 L 7.9355469 32.632812 L 7.9355469 18.462891 L 9.6875 32.632812 L 12.638672 32.632812 L 14.300781 18.130859 L 14.300781 32.632812 L 18.460938 32.632812 L 18.460938 11.152344 L 13.265625 11.152344 A 5.8305468 7.7316891 0 0 0 11.005859 10.53125 z M 49.945312 11.152344 L 49.945312 32.632812 L 54.21875 32.632812 L 54.513672 31.306641 C 54.898059 31.855026 55.319539 32.26487 55.779297 32.539062 C 56.246591 32.813255 56.748076 32.951172 57.283203 32.951172 C 58.029367 32.951172 58.674132 32.721655 59.216797 32.261719 C 59.759461 31.792937 60.102891 31.243224 60.246094 30.615234 C 60.396834 29.978399 60.470703 29.015969 60.470703 27.724609 L 60.470703 19.789062 C 60.470703 18.488858 60.445337 17.640209 60.392578 17.242188 C 60.347356 16.844166 60.204075 16.437196 59.962891 16.021484 C 59.721706 15.605773 59.371867 15.282703 58.912109 15.052734 C 58.452352 14.822766 57.908775 14.708984 57.283203 14.708984 C 56.740539 14.708984 56.234873 14.837247 55.767578 15.09375 C 55.307821 15.341408 54.890522 15.721369 54.513672 16.234375 L 54.513672 11.152344 L 49.945312 11.152344 z M 25.152344 14.708984 C 24.1047 14.708984 23.177554 14.948155 22.371094 15.425781 C 21.564634 15.894563 20.985099 16.575412 20.630859 17.46875 C 20.27662 18.353243 20.099609 19.564498 20.099609 21.103516 L 20.099609 26.238281 C 20.099609 27.547331 20.179613 28.546424 20.337891 29.236328 C 20.496168 29.917388 20.778548 30.546173 21.185547 31.121094 C 21.600082 31.687169 22.175436 32.133675 22.914062 32.460938 C 23.652689 32.7882 24.505966 32.951172 25.470703 32.951172 C 26.465588 32.951172 27.289593 32.7882 27.945312 32.460938 C 28.608569 32.12483 29.154375 31.624307 29.583984 30.960938 C 30.013594 30.297568 30.285382 29.673609 30.398438 29.089844 C 30.51903 28.506078 30.580078 27.669958 30.580078 26.582031 L 30.580078 25.283203 L 26.25 25.283203 L 26.25 27.605469 C 26.25 28.481117 26.188951 29.07324 26.068359 29.382812 C 25.955304 29.68354 25.725609 29.833984 25.378906 29.833984 C 25.100037 29.833984 24.912434 29.718249 24.814453 29.488281 C 24.716472 29.258313 24.667969 28.745263 24.667969 27.949219 L 24.667969 24.142578 L 30.580078 24.142578 L 30.580078 21.806641 C 30.580078 20.099569 30.409478 18.777406 30.070312 17.839844 C 29.738684 16.893436 29.154967 16.136388 28.318359 15.570312 C 27.489289 14.995392 26.433635 14.708984 25.152344 14.708984 z M 39.455078 14.708984 C 38.829507 14.708984 38.271155 14.876783 37.78125 15.212891 C 37.291345 15.540153 36.869864 16.035849 36.515625 16.699219 L 36.59375 15.027344 L 32.083984 15.027344 L 32.083984 32.632812 L 36.515625 32.632812 L 36.515625 20.427734 C 36.515625 19.578621 36.522035 19.024081 36.537109 18.767578 C 36.552183 18.50223 36.632187 18.282367 36.775391 18.105469 C 36.918594 17.919725 37.091423 17.826172 37.294922 17.826172 C 37.619013 17.826172 37.814979 17.998798 37.882812 18.34375 C 37.958183 18.688702 37.996094 19.724457 37.996094 21.449219 L 37.996094 32.632812 L 42.427734 32.632812 L 42.427734 21.15625 C 42.427734 19.643767 42.474009 18.711219 42.564453 18.357422 C 42.662434 18.003625 42.873174 17.826172 43.197266 17.826172 C 43.51382 17.826172 43.713968 18.008452 43.796875 18.371094 C 43.887319 18.724891 43.931641 19.652612 43.931641 21.15625 L 43.931641 32.632812 L 48.363281 32.632812 L 48.363281 20.121094 C 48.363281 18.67937 48.291641 17.640741 48.148438 17.003906 C 48.005234 16.358226 47.676579 15.81334 47.164062 15.371094 C 46.659083 14.928847 46.018499 14.708984 45.242188 14.708984 C 44.654301 14.708984 44.119087 14.876783 43.636719 15.212891 C 43.15435 15.540153 42.722278 16.035849 42.337891 16.699219 C 41.636949 15.372479 40.676073 14.708984 39.455078 14.708984 z M 66.892578 14.708984 C 65.844934 14.708984 64.917788 14.948155 64.111328 15.425781 C 63.304868 15.894563 62.725333 16.575412 62.371094 17.46875 C 62.016854 18.353243 61.839844 19.564498 61.839844 21.103516 L 61.839844 26.238281 C 61.839844 27.547331 61.917895 28.546424 62.076172 29.236328 C 62.234449 29.917388 62.518783 30.546173 62.925781 31.121094 C 63.340317 31.687169 63.91567 32.133675 64.654297 32.460938 C 65.392924 32.7882 66.244247 32.951172 67.208984 32.951172 C 68.203869 32.951172 69.029827 32.7882 69.685547 32.460938 C 70.348804 32.12483 70.894609 31.624307 71.324219 30.960938 C 71.753828 30.297568 72.025617 29.673609 72.138672 29.089844 C 72.259264 28.506078 72.320312 27.669958 72.320312 26.582031 L 72.320312 25.283203 L 67.990234 25.283203 L 67.990234 27.605469 C 67.990234 28.481117 67.929186 29.07324 67.808594 29.382812 C 67.695539 29.68354 67.465843 29.833984 67.119141 29.833984 C 66.840271 29.833984 66.652669 29.718249 66.554688 29.488281 C 66.456706 29.258313 66.40625 28.745263 66.40625 27.949219 L 66.40625 24.142578 L 72.320312 24.142578 L 72.320312 21.806641 C 72.320312 20.099569 72.149712 18.777406 71.810547 17.839844 C 71.478919 16.893436 70.895202 16.136388 70.058594 15.570312 C 69.229523 14.995392 68.173869 14.708984 66.892578 14.708984 z M 81.09375 14.708984 C 79.83507 14.806279 78.872241 15.681935 78.208984 17.335938 L 78.390625 15.027344 L 73.824219 15.027344 L 73.824219 32.632812 L 78.390625 32.632812 L 78.390625 25.681641 C 78.390625 23.974569 78.4369 22.884797 78.527344 22.416016 C 78.617788 21.938389 78.858076 21.568082 79.25 21.302734 C 79.641924 21.037386 80.257142 20.904297 81.09375 20.904297 L 81.09375 14.708984 z M 81.578125 15.027344 L 84.078125 29.753906 C 84.26655 30.841833 84.359375 31.456137 84.359375 31.597656 C 84.359375 31.889539 84.258187 32.079519 84.054688 32.167969 C 83.851188 32.247573 83.395979 32.287109 82.6875 32.287109 L 82.6875 35.099609 L 85.457031 35.099609 C 86.723248 35.099609 87.642031 34.985828 88.214844 34.755859 C 88.795193 34.534736 89.248174 34.184658 89.572266 33.707031 C 89.896357 33.229405 90.126053 32.624754 90.261719 31.890625 C 90.404922 31.156496 90.577751 29.780316 90.78125 27.763672 L 92.09375 15.027344 L 87.943359 15.027344 L 87.220703 26.900391 L 85.728516 15.027344 L 81.578125 15.027344 z M 25.367188 17.826172 C 25.623446 17.826172 25.794046 17.959261 25.876953 18.224609 C 25.95986 18.489957 26.001953 19.077253 26.001953 19.988281 L 26.001953 21.275391 L 24.667969 21.275391 L 24.667969 19.988281 C 24.667969 18.997649 24.703927 18.392998 24.779297 18.171875 C 24.854667 17.941907 25.050633 17.826172 25.367188 17.826172 z M 55.179688 17.826172 C 55.466094 17.826172 55.659831 17.968915 55.757812 18.251953 C 55.855794 18.526146 55.904297 19.118269 55.904297 20.029297 L 55.904297 27.445312 C 55.904297 28.489014 55.858022 29.147682 55.767578 29.421875 C 55.684671 29.696068 55.50125 29.833984 55.214844 29.833984 C 54.935974 29.833984 54.746419 29.700895 54.648438 29.435547 C 54.557993 29.170199 54.513672 28.563595 54.513672 27.617188 L 54.513672 20.029297 C 54.513672 19.04751 54.555765 18.436079 54.638672 18.197266 C 54.721579 17.949608 54.900818 17.826172 55.179688 17.826172 z M 67.107422 17.826172 C 67.36368 17.826172 67.53428 17.959261 67.617188 18.224609 C 67.700095 18.489957 67.740234 19.077253 67.740234 19.988281 L 67.740234 21.275391 L 66.40625 21.275391 L 66.40625 19.988281 C 66.40625 18.997649 66.444161 18.392998 66.519531 18.171875 C 66.594901 17.941907 66.790868 17.826172 67.107422 17.826172 z "
       transform="translate(151.69089,896.64116)"
       id="text5264" />
    <g
       id="g4837"
       style="filter:url(#filter4841);fill:#000000">
      <circle
         r="3.4914546"
         inkscape:export-ydpi="179.62755"
         inkscape:export-xdpi="179.62755"
         cy="903.2464"
         cx="162.19089"
         id="path3336"
         style="fill:#000000;fill-opacity:1;fill-rule:evenodd;stroke:#000000;stroke-width:0.01709145px;stroke-linecap:butt;stroke-linejoin:miter;stroke-opacity:1" />
      <path
         inkscape:export-ydpi="179.62755"
         inkscape:export-xdpi="179.62755"
         inkscape:connector-curvature="0"
         id="path3336-5"
         d="m 162.39654,907.16872 a 5.8324715,5.2579915 0 0 0 -3.98918,1.42723 l 3.94462,9.01168 4.02339,-9.01651 a 5.8324715,5.2579915 0 0 0 -3.97883,-1.4224 z"
         style="fill:#000000;fill-opacity:1;fill-rule:evenodd;stroke:#000000;stroke-width:0.02710861px;stroke-linecap:butt;stroke-linejoin:miter;stroke-opacity:1" />
    </g>
  </g>
</svg>
